<?xml version="1.0" encoding="UTF-8" standalone="no"?><!DOCTYPE svg PUBLIC "-//W3C//DTD SVG 1.1//EN" "http://www.w3.org/Graphics/SVG/1.1/DTD/svg11.dtd"><svg width="100%" height="100%" viewBox="0 0 3972 2837" version="1.1" xmlns="http://www.w3.org/2000/svg" xmlns:xlink="http://www.w3.org/1999/xlink" xml:space="preserve" xmlns:serif="http://www.serif.com/" style="fill-rule:evenodd;clip-rule:evenodd;stroke-linejoin:round;stroke-miterlimit:2;"><rect id="Artboard1" x="0" y="0" width="3971.53" height="2836.04" style="fill:none;"/><g><g><path d="M38.316,942.619l75.491,0c81.942,0 111.08,-49.531 111.08,-108.447c0,-23.625 -4.953,-46.667 -19.814,-67.075c-27.972,-40.207 -71.138,-40.207 -95.35,-40.207l-71.407,0l0,215.729Zm55.071,-167.364l23.921,0c24.503,0 35.588,10.209 42.006,19.834c7.876,12.249 10.502,27.708 10.502,39.958c0,30.624 -11.669,59.207 -52.8,59.207l-23.629,0l0,-118.999Z" style="fill:#fff;fill-rule:nonzero;"/><path d="M412.662,878.473c3.79,-29.711 -2.331,-55.681 -22.726,-77.545c-15.15,-16.023 -36.434,-25.636 -61.23,-25.636c-49.284,-0 -84.83,41.66 -84.83,86.869c0,48.127 39.333,85.706 85.705,85.706c16.628,0 32.673,-4.952 46.079,-14.565c13.694,-9.322 25.056,-23.305 32.923,-41.4l-49.538,0c-5.834,8.467 -14.003,15.181 -29.464,15.181c-18.962,0 -35.298,-11.386 -37.34,-28.61l120.421,-0Zm-119.838,-36.702c1.167,-7.592 11.086,-25.695 36.174,-25.695c25.088,-0 35.006,18.103 36.173,25.695l-72.347,-0Z" style="fill:#fff;fill-rule:nonzero;"/><path d="M440.689,942.619l48.365,0l-0,-86.869c-0,-22.763 11.663,-31.802 36.447,-31.802l1.749,0l-0,-48.656c-27.991,-0 -36.447,14.859 -41.11,23.6l0,-18.06l-45.451,-0l-0,161.787Z" style="fill:#fff;fill-rule:nonzero;"/><path d="M702.487,878.473c3.79,-29.711 -2.331,-55.681 -22.726,-77.545c-15.15,-16.023 -36.434,-25.636 -61.23,-25.636c-49.284,-0 -84.83,41.66 -84.83,86.869c0,48.127 39.333,85.706 85.705,85.706c16.628,0 32.673,-4.952 46.079,-14.565c13.694,-9.322 25.057,-23.305 32.923,-41.4l-49.538,0c-5.834,8.467 -14.002,15.181 -29.464,15.181c-18.962,0 -35.298,-11.386 -37.34,-28.61l120.421,-0Zm-119.838,-36.702c1.167,-7.592 11.086,-25.695 36.174,-25.695c25.088,-0 35.006,18.103 36.173,25.695l-72.347,-0Z" style="fill:#fff;fill-rule:nonzero;"/><path d="M732.555,942.619l48.365,0l-0,-77.832l46.36,77.832l54.816,0l-59.19,-90.659l60.94,-71.128l-57.441,-0l-45.485,58.593l-0,-112.535l-48.365,0l-0,215.729Z" style="fill:#fff;fill-rule:nonzero;"/><path d="M89.014,1333.19l-1.749,-161.532l46.664,161.532l36.458,0l46.664,-161.532l-1.749,161.532l50.697,0l0,-215.728l-74.03,-0l-39.374,139.044l-40.54,-139.044l-73.739,-0l0,215.728l50.698,0Z" style="fill:#fff;fill-rule:nonzero;"/><path d="M417.326,1271.7c-5.248,9.918 -14.87,21.586 -34.989,21.586c-23.034,0 -38.487,-17.502 -38.487,-41.13c-0,-11.668 3.79,-22.17 10.496,-29.754c6.998,-7.584 16.62,-11.959 27.991,-11.376c20.119,-0 29.741,11.668 34.989,22.753l48.985,-0c-8.164,-39.651 -42.862,-67.911 -85.723,-67.911c-48.393,-0 -85.395,38.457 -85.395,85.996c0,48.123 37.585,86.58 86.561,86.58c43.736,-0 76.101,-30.008 84.848,-66.744l-49.276,-0Z" style="fill:#fff;fill-rule:nonzero;"/><path d="M651.461,1252.57c-3.499,7.559 -17.495,36.342 -51.901,36.342c-35.863,0 -58.023,-31.4 -58.023,-63.963c0,-30.584 20.702,-63.2 57.732,-63.2c29.74,0 46.069,21.744 52.192,37.905l57.731,0c-5.831,-34.085 -41.986,-86.269 -109.632,-86.269c-70.552,-0 -113.094,56.592 -113.094,111.855c-0,58.148 46.039,112.037 113.678,112.037c52.191,0 96.511,-33.797 109.048,-84.707l-57.731,-0Z" style="fill:#fff;fill-rule:nonzero;"/><path d="M728.181,1252.15c0,39.672 28.262,85.996 87.163,85.996c58.901,0 87.162,-46.324 87.162,-85.996c0,-39.672 -28.261,-85.996 -87.162,-85.996c-58.901,-0 -87.163,46.324 -87.163,85.704l0,0.292Zm48.365,-0c0,-23.628 17.795,-40.839 38.798,-40.839c21.003,0 38.797,17.211 38.797,40.839c0,23.628 -17.794,40.838 -38.797,40.838c-21.003,0 -38.798,-17.21 -38.798,-40.546l0,-0.292Z" style="fill:#fff;fill-rule:nonzero;"/><path d="M929.659,1333.19l48.365,0l0,-86.869c0,-22.763 11.663,-31.802 36.447,-31.802l1.749,0l0,-48.656c-27.991,-0 -36.446,14.859 -41.109,23.6l-0,-18.06l-45.452,-0l0,161.787Z" style="fill:#fff;fill-rule:nonzero;"/><path d="M1038.71,1333.19l48.365,0l-0,-86.014c-0,-4.957 -0,-13.704 3.501,-21.577c3.502,-7.872 10.213,-14.287 23.926,-14.287c12.255,0 18.09,6.123 21.3,13.704c2.918,7.29 2.918,15.745 2.918,20.119l0,88.055l48.365,0l-0,-88.347c-0,-4.665 -0,-12.829 3.501,-20.118c3.21,-7.29 9.921,-13.413 23.343,-13.413c12.546,0 18.674,5.54 21.591,13.121c3.21,7.289 3.21,16.037 3.21,22.743l0,86.014l48.365,0l0,-88.347c0,-35.862 -2.331,-46.641 -17.481,-62.665c-13.111,-13.693 -31.176,-16.315 -42.555,-16.315c-16.923,-0 -30.054,6.118 -39.682,14.859c-4.662,4.078 -8.45,9.031 -11.655,13.984c-2.913,-5.536 -6.118,-9.906 -9.614,-13.402c-11.946,-12.527 -25.931,-15.441 -37.017,-15.441c-16.923,-0 -28.302,5.536 -35.305,11.363c-7.002,5.524 -9.916,11.343 -9.916,11.343l0,-17.166l-45.16,-0l0,161.787Z" style="fill:#fff;fill-rule:nonzero;"/><path d="M1491.19,1171.41l-48.365,-0l0,17.184c-6.417,-9.905 -21.294,-22.724 -47.839,-22.724c-43.161,-0 -81.328,33.213 -81.328,86.288c-0,46.374 30.009,86.579 81.328,86.579c18.961,0 39.089,-7.283 47.839,-23.016l0,17.476l48.365,0l0,-161.787Zm-129.167,81.331c-0,-18.377 12.251,-41.713 39.964,-41.713c20.419,-0 31.504,11.376 36.755,22.461c3.209,6.709 4.666,14.001 4.083,21.294c-0.583,7.293 -2.625,14.294 -6.709,20.711c-6.125,9.918 -16.627,18.086 -33.838,18.086c-29.17,-0 -40.255,-25.67 -40.255,-40.547l-0,-0.292Z" style="fill:#fff;fill-rule:nonzero;"/><path d="M1640.77,1271.7c-5.249,9.918 -14.87,21.586 -34.989,21.586c-23.034,0 -38.488,-17.502 -38.488,-41.13c0,-11.668 3.791,-22.17 10.497,-29.754c6.998,-7.584 16.619,-11.959 27.991,-11.376c20.119,-0 29.74,11.668 34.989,22.753l48.984,-0c-8.164,-39.651 -42.861,-67.911 -85.723,-67.911c-48.392,-0 -85.394,38.457 -85.394,85.996c-0,48.123 37.585,86.58 86.561,86.58c43.736,-0 76.101,-30.008 84.848,-66.744l-49.276,-0Z" style="fill:#fff;fill-rule:nonzero;"/><path d="M1713.99,1333.19l48.365,0l0,-77.832l46.361,77.832l54.816,0l-59.19,-90.659l60.939,-71.128l-57.44,-0l-45.486,58.594l0,-112.535l-48.365,-0l0,215.728Z" style="fill:#fff;fill-rule:nonzero;"/></g><g><path d="M2082.15,55.514l0,874.116l223.144,0l0,-274.093l87.486,-0c135.952,-0 194.984,-24.792 255.196,-75.556c55.489,-47.222 92.088,-140.514 92.088,-229.186c-0,-88.671 -34.238,-174.866 -102.714,-231.532c-47.225,-38.959 -107.437,-63.749 -269.397,-63.749l-285.803,-0Zm223.144,195.971l73.299,-0c24.827,-0 61.476,-0 92.214,13.004c30.738,13.005 55.564,37.833 55.564,89.853c0,52.021 -23.644,79.213 -53.2,92.219c-29.555,13.005 -65.022,13.005 -86.303,13.005l-81.574,-0l0,-208.081Z" style="fill:#fff;fill-rule:nonzero;"/><path d="M2770.93,601.265c-0,160.747 114.514,348.45 353.176,348.45c238.663,-0 353.176,-187.703 353.176,-348.45c0,-160.747 -114.513,-348.451 -353.176,-348.451c-238.662,0 -353.176,187.704 -353.176,347.269l-0,1.182Zm195.971,0c-0,-95.739 72.102,-165.476 157.205,-165.476c85.104,0 157.205,69.737 157.205,165.476c-0,95.739 -72.101,165.475 -157.205,165.475c-85.103,-0 -157.205,-69.736 -157.205,-164.293l-0,-1.182Z" style="fill:#fff;fill-rule:nonzero;"/><path d="M3587.3,929.63l195.972,0l-0,-351.988c-0,-92.232 47.257,-128.857 147.679,-128.857l7.089,0l-0,-197.152c-113.418,-0 -147.68,60.208 -166.573,95.624l0,-73.177l-184.167,-0l0,655.55Z" style="fill:#fff;fill-rule:nonzero;"/><path d="M2112.87,1855.09l195.971,0l-0,-506.837l94.515,0l-0,-148.713l-94.515,-0l-0,-218.566l-195.971,-0l-0,218.566l-96.878,-0l-0,148.713l96.878,0l-0,506.837Z" style="fill:#fff;fill-rule:nonzero;"/><path d="M2495.65,1855.09l195.971,0l-0,-506.837l82.7,0l0,-148.713l-82.7,-0l-0,-24.852c-0,-62.722 46.076,-62.722 82.7,-62.722l0,-147.532c-138.185,-0 -278.671,16.524 -278.671,206.703l-0,28.403l-73.25,-0l0,148.713l73.25,0l-0,506.837Z" style="fill:#fff;fill-rule:nonzero;"/><path d="M2805.19,1526.73c0,160.747 114.514,348.45 353.177,348.45c238.663,-0 353.176,-187.703 353.176,-348.45c-0,-160.747 -114.513,-348.451 -353.176,-348.451c-238.663,-0 -353.177,187.704 -353.177,347.269l0,1.182Zm195.971,-0c0,-95.739 72.102,-165.476 157.206,-165.476c85.104,0 157.205,69.737 157.205,165.476c-0,95.739 -72.101,165.474 -157.205,165.474c-85.104,0 -157.206,-69.735 -157.206,-164.292l0,-1.182Z" style="fill:#fff;fill-rule:nonzero;"/><rect x="2073.88" y="1906.43" width="195.971" height="874.117" style="fill:#fff;fill-rule:nonzero;"/><path d="M2411.77,2055.15l195.971,0l-0,-148.713l-195.971,-0l-0,148.713Zm-0,725.403l195.971,0l-0,-655.55l-195.971,-0l-0,655.55Z" style="fill:#fff;fill-rule:nonzero;"/><path d="M2718.94,2452.18c0,160.746 114.514,348.45 353.177,348.45c238.663,-0 353.176,-187.704 353.176,-348.45c-0,-160.747 -114.513,-348.451 -353.176,-348.451c-238.663,-0 -353.177,187.704 -353.177,347.269l0,1.182Zm195.972,-0c-0,-95.739 72.101,-165.476 157.205,-165.476c85.104,-0 157.205,69.737 157.205,165.476c-0,95.739 -72.101,165.474 -157.205,165.474c-85.104,0 -157.205,-69.735 -157.205,-164.292l-0,-1.182Z" style="fill:#fff;fill-rule:nonzero;"/></g></g></svg>